<svg width="24" height="22" viewBox="0 0 24 22" fill="none" xmlns="http://www.w3.org/2000/svg">
<g id="Limit">
<path id="icon_2" d="M8 19C7.486 19.697 7.277 19.94 6.855 19.993C6.433 20.046 6.14 19.803 5.555 19.32C3.381 17.52 2 14.825 2 11.815C2 6.395 6.477 2 12 2C17.523 2 22 6.394 22 11.815C22 14.825 20.619 17.519 18.445 19.32C17.86 19.804 17.568 20.046 17.145 19.993C16.723 19.94 16.514 19.697 16 19M13.5 9.5L18 4" stroke="black" stroke-width="2.5" stroke-linecap="round" stroke-linejoin="round"/>
<path id="icon" d="M12 12.5C12.8284 12.5 13.5 11.8284 13.5 11C13.5 10.1716 12.8284 9.5 12 9.5C11.1716 9.5 10.5 10.1716 10.5 11C10.5 11.8284 11.1716 12.5 12 12.5Z" stroke="black" stroke-width="2.5" stroke-linecap="round" stroke-linejoin="round"/>
</g>
</svg>
